<mxfile host="app.diagrams.net" agent="Mozilla/5.0 (Windows NT 10.0; Win64; x64) AppleWebKit/537.36 (KHTML, like Gecko) Chrome/132.0.0.0 Safari/537.36" version="26.0.10">
  <diagram name="第 1 页" id="D50AsNyRHFX16P8X04xE">
    <mxGraphModel dx="-364" dy="653" grid="1" gridSize="10" guides="1" tooltips="1" connect="1" arrows="1" fold="1" page="1" pageScale="1" pageWidth="827" pageHeight="1169" math="0" shadow="0">
      <root>
        <mxCell id="0" />
        <mxCell id="1" parent="0" />
        <mxCell id="AhKgEagX0Gy5K0-R6Pbl-1" value="" style="rounded=0;whiteSpace=wrap;html=1;" vertex="1" parent="1">
          <mxGeometry x="1755.03" y="313" width="522" height="187" as="geometry" />
        </mxCell>
        <mxCell id="AhKgEagX0Gy5K0-R6Pbl-2" value="" style="rounded=0;whiteSpace=wrap;html=1;" vertex="1" parent="1">
          <mxGeometry x="1755.03" y="139" width="522" height="154" as="geometry" />
        </mxCell>
        <mxCell id="AhKgEagX0Gy5K0-R6Pbl-3" value="&lt;font style=&quot;font-size: 25px;&quot;&gt;高中地理教学系统&lt;/font&gt;" style="rounded=0;whiteSpace=wrap;html=1;fillColor=#f5f5f5;fontColor=#333333;strokeColor=#000000;spacing=32;spacingTop=0;spacingLeft=0;verticalAlign=middle;fontSize=25;" vertex="1" parent="1">
          <mxGeometry x="1856.03" y="50" width="320" height="40" as="geometry" />
        </mxCell>
        <mxCell id="AhKgEagX0Gy5K0-R6Pbl-4" value="" style="shape=singleArrow;direction=south;whiteSpace=wrap;html=1;arrowWidth=0.3866678873697917;arrowSize=0.42548953785615806;fillColor=#f5f5f5;fontColor=#333333;strokeColor=#666666;" vertex="1" parent="1">
          <mxGeometry x="2001.03" y="94" width="41" height="41" as="geometry" />
        </mxCell>
        <mxCell id="AhKgEagX0Gy5K0-R6Pbl-5" value="实验模拟" style="rounded=0;whiteSpace=wrap;html=1;fillColor=#B3B3B3;strokeColor=#36393d;fontSize=16;" vertex="1" parent="1">
          <mxGeometry x="1960.03" y="335" width="106" height="39" as="geometry" />
        </mxCell>
        <mxCell id="AhKgEagX0Gy5K0-R6Pbl-6" value="测试评估" style="rounded=0;whiteSpace=wrap;html=1;fillColor=#B3B3B3;strokeColor=#36393d;fontSize=16;" vertex="1" parent="1">
          <mxGeometry x="2143.03" y="335" width="106" height="39" as="geometry" />
        </mxCell>
        <mxCell id="AhKgEagX0Gy5K0-R6Pbl-7" value="" style="shape=singleArrow;whiteSpace=wrap;html=1;fillColor=#f5f5f5;fontColor=#333333;strokeColor=#666666;" vertex="1" parent="1">
          <mxGeometry x="1896.03" y="344.75" width="43" height="19.5" as="geometry" />
        </mxCell>
        <mxCell id="AhKgEagX0Gy5K0-R6Pbl-8" value="" style="shape=singleArrow;whiteSpace=wrap;html=1;fillColor=#f5f5f5;fontColor=#333333;strokeColor=#666666;" vertex="1" parent="1">
          <mxGeometry x="2080.53" y="344.75" width="42.5" height="19.5" as="geometry" />
        </mxCell>
        <mxCell id="AhKgEagX0Gy5K0-R6Pbl-9" value="进行地形探索" style="rounded=0;whiteSpace=wrap;html=1;fillColor=#f5f5f5;fontColor=#333333;strokeColor=#666666;fontSize=13;textDirection=vertical-lr;" vertex="1" parent="1">
          <mxGeometry x="1782.03" y="385" width="30" height="100" as="geometry" />
        </mxCell>
        <mxCell id="AhKgEagX0Gy5K0-R6Pbl-10" value="记录观察结果" style="rounded=0;whiteSpace=wrap;html=1;fillColor=#f5f5f5;fontColor=#333333;strokeColor=#666666;fontSize=13;textDirection=vertical-lr;" vertex="1" parent="1">
          <mxGeometry x="1830.03" y="385" width="30" height="100" as="geometry" />
        </mxCell>
        <mxCell id="AhKgEagX0Gy5K0-R6Pbl-11" value="互动学习" style="rounded=0;whiteSpace=wrap;html=1;fillColor=#B3B3B3;strokeColor=#000000;fontSize=16;" vertex="1" parent="1">
          <mxGeometry x="1768.03" y="335" width="106" height="39" as="geometry" />
        </mxCell>
        <mxCell id="AhKgEagX0Gy5K0-R6Pbl-12" value="设置实验参数" style="rounded=0;whiteSpace=wrap;html=1;fillColor=#f5f5f5;fontColor=#333333;strokeColor=#666666;textDirection=vertical-lr;fontSize=13;" vertex="1" parent="1">
          <mxGeometry x="1973.03" y="385" width="30" height="100" as="geometry" />
        </mxCell>
        <mxCell id="AhKgEagX0Gy5K0-R6Pbl-13" value="进行虚拟实验" style="rounded=0;whiteSpace=wrap;html=1;fillColor=#f5f5f5;fontColor=#333333;strokeColor=#666666;textDirection=vertical-lr;fontSize=13;" vertex="1" parent="1">
          <mxGeometry x="2021.03" y="385" width="30" height="100" as="geometry" />
        </mxCell>
        <mxCell id="AhKgEagX0Gy5K0-R6Pbl-14" value="在线测试" style="rounded=0;whiteSpace=wrap;html=1;fillColor=#f5f5f5;fontColor=#333333;strokeColor=#666666;textDirection=vertical-lr;fontSize=13;" vertex="1" parent="1">
          <mxGeometry x="2158.03" y="385" width="30" height="100" as="geometry" />
        </mxCell>
        <mxCell id="AhKgEagX0Gy5K0-R6Pbl-15" value="及时反馈" style="rounded=0;whiteSpace=wrap;html=1;fillColor=#f5f5f5;fontColor=#333333;strokeColor=#666666;textDirection=vertical-lr;fontSize=13;" vertex="1" parent="1">
          <mxGeometry x="2206.03" y="385" width="30" height="100" as="geometry" />
        </mxCell>
        <mxCell id="AhKgEagX0Gy5K0-R6Pbl-16" value="" style="rounded=0;whiteSpace=wrap;html=1;fillColor=#f5f5f5;strokeColor=#666666;fontColor=#333333;dashed=1;" vertex="1" parent="1">
          <mxGeometry x="1763.53" y="550" width="490" height="80" as="geometry" />
        </mxCell>
        <mxCell id="AhKgEagX0Gy5K0-R6Pbl-17" value="&lt;span style=&quot;color: rgb(0, 0, 0); font-size: 13px;&quot;&gt;提升空间思维能力&lt;/span&gt;" style="rounded=0;whiteSpace=wrap;html=1;fillColor=#B3B3B3;strokeColor=#36393d;" vertex="1" parent="1">
          <mxGeometry x="1790.03" y="571.25" width="106" height="39" as="geometry" />
        </mxCell>
        <mxCell id="AhKgEagX0Gy5K0-R6Pbl-18" value="&lt;font style=&quot;font-size: 13px;&quot;&gt;&lt;span style=&quot;color: rgb(0, 0, 0); font-family: Helvetica; font-style: normal; font-variant-ligatures: normal; font-variant-caps: normal; font-weight: 400; letter-spacing: normal; orphans: 2; text-align: center; text-indent: 0px; text-transform: none; widows: 2; word-spacing: 0px; -webkit-text-stroke-width: 0px; white-space: normal; text-decoration-thickness: initial; text-decoration-style: initial; text-decoration-color: initial; float: none; font-size: 13px; display: inline !important;&quot;&gt;增强实践能力&lt;/span&gt;&lt;br style=&quot;font-size: 13px;&quot;&gt;&lt;/font&gt;" style="rounded=0;whiteSpace=wrap;html=1;fillColor=#B3B3B3;strokeColor=#36393d;fontSize=13;verticalAlign=middle;labelPosition=center;verticalLabelPosition=middle;align=center;" vertex="1" parent="1">
          <mxGeometry x="1954.03" y="571.25" width="106" height="39" as="geometry" />
        </mxCell>
        <mxCell id="AhKgEagX0Gy5K0-R6Pbl-19" value="&lt;span style=&quot;color: rgb(0, 0, 0); font-size: 13px;&quot;&gt;激发探究精神&lt;/span&gt;" style="rounded=0;whiteSpace=wrap;html=1;fillColor=#B3B3B3;strokeColor=#36393d;" vertex="1" parent="1">
          <mxGeometry x="2120.03" y="569.75" width="106" height="39" as="geometry" />
        </mxCell>
        <mxCell id="AhKgEagX0Gy5K0-R6Pbl-20" value="&lt;font color=&quot;#000000&quot;&gt;&lt;span style=&quot;font-size: 15px;&quot;&gt;综合素养提升&lt;/span&gt;&lt;/font&gt;" style="rounded=0;whiteSpace=wrap;html=1;fillColor=#f5f5f5;fontColor=#333333;strokeColor=#000000;" vertex="1" parent="1">
          <mxGeometry x="1883.53" y="679" width="265" height="39" as="geometry" />
        </mxCell>
        <mxCell id="AhKgEagX0Gy5K0-R6Pbl-21" value="&lt;span style=&quot;color: rgb(0, 0, 0);&quot;&gt;空间性&lt;/span&gt;" style="rounded=0;whiteSpace=wrap;html=1;fillColor=#B3B3B3;strokeColor=#666666;fontSize=14;gradientColor=none;" vertex="1" parent="1">
          <mxGeometry x="1774.53" y="154" width="106" height="39" as="geometry" />
        </mxCell>
        <mxCell id="AhKgEagX0Gy5K0-R6Pbl-22" value="时间性" style="rounded=0;whiteSpace=wrap;html=1;fillColor=#B3B3B3;strokeColor=#36393d;fontSize=14;" vertex="1" parent="1">
          <mxGeometry x="1968.53" y="154" width="106" height="39" as="geometry" />
        </mxCell>
        <mxCell id="AhKgEagX0Gy5K0-R6Pbl-23" value="互动性" style="rounded=0;whiteSpace=wrap;html=1;fillColor=#B3B3B3;strokeColor=#36393d;fontSize=14;" vertex="1" parent="1">
          <mxGeometry x="2161.53" y="154" width="106" height="39" as="geometry" />
        </mxCell>
        <mxCell id="AhKgEagX0Gy5K0-R6Pbl-24" value="&lt;span style=&quot;color: rgb(0, 0, 0); font-size: 13px;&quot;&gt;自由探索地理空间&lt;/span&gt;" style="rounded=1;whiteSpace=wrap;html=1;fillColor=#F5F5F5;strokeColor=#36393d;fontSize=13;" vertex="1" parent="1">
          <mxGeometry x="1771.53" y="232" width="107" height="41" as="geometry" />
        </mxCell>
        <mxCell id="AhKgEagX0Gy5K0-R6Pbl-25" value="&lt;span style=&quot;color: rgb(0, 0, 0); font-size: 13px;&quot;&gt;模拟动态地理现象&lt;/span&gt;" style="rounded=1;whiteSpace=wrap;html=1;fillColor=#F5F5F5;fontColor=#333333;strokeColor=#000000;fontSize=13;" vertex="1" parent="1">
          <mxGeometry x="1972.03" y="233" width="107.5" height="41" as="geometry" />
        </mxCell>
        <mxCell id="AhKgEagX0Gy5K0-R6Pbl-26" value="&lt;span style=&quot;color: rgb(0, 0, 0); font-size: 13px;&quot;&gt;增强学生参与感&lt;/span&gt;" style="rounded=1;whiteSpace=wrap;html=1;fillColor=#F5F5F5;fontColor=#333333;strokeColor=#000000;fontSize=13;" vertex="1" parent="1">
          <mxGeometry x="2158.53" y="233" width="107" height="41" as="geometry" />
        </mxCell>
        <mxCell id="AhKgEagX0Gy5K0-R6Pbl-27" value="" style="endArrow=classic;html=1;rounded=0;dashed=1;strokeWidth=2;strokeColor=#999999;" edge="1" parent="1">
          <mxGeometry width="50" height="50" relative="1" as="geometry">
            <mxPoint x="1820.78" y="192" as="sourcePoint" />
            <mxPoint x="1820.78" y="231" as="targetPoint" />
          </mxGeometry>
        </mxCell>
        <mxCell id="AhKgEagX0Gy5K0-R6Pbl-28" value="" style="endArrow=classic;html=1;rounded=0;dashed=1;strokeWidth=2;strokeColor=#999999;" edge="1" parent="1">
          <mxGeometry width="50" height="50" relative="1" as="geometry">
            <mxPoint x="2021.28" y="193" as="sourcePoint" />
            <mxPoint x="2021.28" y="232" as="targetPoint" />
          </mxGeometry>
        </mxCell>
        <mxCell id="AhKgEagX0Gy5K0-R6Pbl-29" value="" style="endArrow=classic;html=1;rounded=0;strokeColor=#999999;strokeWidth=2;dashed=1;" edge="1" parent="1">
          <mxGeometry width="50" height="50" relative="1" as="geometry">
            <mxPoint x="2220.28" y="193" as="sourcePoint" />
            <mxPoint x="2220.28" y="232" as="targetPoint" />
          </mxGeometry>
        </mxCell>
        <mxCell id="AhKgEagX0Gy5K0-R6Pbl-30" value="" style="edgeStyle=elbowEdgeStyle;elbow=horizontal;endArrow=classic;html=1;curved=0;rounded=0;endSize=8;startSize=8;exitX=0;exitY=0.5;exitDx=0;exitDy=0;dashed=1;strokeColor=#999999;strokeWidth=2;entryX=0;entryY=0.5;entryDx=0;entryDy=0;" edge="1" parent="1" source="AhKgEagX0Gy5K0-R6Pbl-2" target="AhKgEagX0Gy5K0-R6Pbl-1">
          <mxGeometry width="50" height="50" relative="1" as="geometry">
            <mxPoint x="1755.0279999999998" y="189.8760000000001" as="sourcePoint" />
            <mxPoint x="1748.53" y="409.13" as="targetPoint" />
            <Array as="points">
              <mxPoint x="1720" y="212.39" />
            </Array>
          </mxGeometry>
        </mxCell>
        <mxCell id="AhKgEagX0Gy5K0-R6Pbl-31" value="" style="edgeStyle=elbowEdgeStyle;elbow=horizontal;endArrow=classic;html=1;curved=0;rounded=0;endSize=8;startSize=8;exitX=1;exitY=0.5;exitDx=0;exitDy=0;entryX=1;entryY=0.5;entryDx=0;entryDy=0;dashed=1;strokeColor=#999999;strokeWidth=2;" edge="1" parent="1" source="AhKgEagX0Gy5K0-R6Pbl-2" target="AhKgEagX0Gy5K0-R6Pbl-1">
          <mxGeometry width="50" height="50" relative="1" as="geometry">
            <mxPoint x="2279.0580000000004" y="148.99600000000032" as="sourcePoint" />
            <mxPoint x="2259.5300000000007" y="354.4999999999998" as="targetPoint" />
            <Array as="points">
              <mxPoint x="2311.0580000000004" y="206.99600000000032" />
            </Array>
          </mxGeometry>
        </mxCell>
        <mxCell id="AhKgEagX0Gy5K0-R6Pbl-32" value="" style="shape=singleArrow;direction=south;whiteSpace=wrap;html=1;arrowWidth=0.3866678873697917;arrowSize=0.42548953785615806;fillColor=#f5f5f5;fontColor=#333333;strokeColor=#666666;" vertex="1" parent="1">
          <mxGeometry x="1995.53" y="505" width="41" height="41" as="geometry" />
        </mxCell>
        <mxCell id="AhKgEagX0Gy5K0-R6Pbl-33" value="" style="shape=singleArrow;direction=south;whiteSpace=wrap;html=1;arrowWidth=0.3866678873697917;arrowSize=0.42548953785615806;fillColor=#f5f5f5;fontColor=#333333;strokeColor=#666666;" vertex="1" parent="1">
          <mxGeometry x="1995.53" y="635" width="41" height="41" as="geometry" />
        </mxCell>
      </root>
    </mxGraphModel>
  </diagram>
</mxfile>
